HIERARCHY
ROOT pelvis
{
  OFFSET 0 100 0
  CHANNELS 6 Xposition Yposition Zposition Zrotation Xrotation Yrotation
  JOINT pelvis_right_femur
  {
    OFFSET -10.78128 -3.44521 -0.5502486
    CHANNELS 3 Zrotation Xrotation Yrotation
    JOINT right_femur_tibia
    {
      OFFSET -0.8047443 -44.0398 -0.1307829
      CHANNELS 3 Zrotation Xrotation Yrotation
      JOINT right_tibia_foot
      {
        OFFSET 3.006224 -47.83518 -5
        CHANNELS 3 Zrotation Xrotation Yrotation
        End Site
        {
          OFFSET 0 -5 15
        }
      }
    }
  }
  JOINT pelvis_left_femur
  {
    OFFSET 10.78128 -3.44521 -0.5502486
    CHANNELS 3 Zrotation Xrotation Yrotation
    JOINT left_femur_tibia
    {
      OFFSET 0.8047443 -44.0398 -0.1307829
      CHANNELS 3 Zrotation Xrotation Yrotation
      JOINT left_tibia_foot
      {
        OFFSET -4.370144 -48.10324 -4.275266
        CHANNELS 3 Zrotation Xrotation Yrotation
        End Site
        {
          OFFSET 0 -5 15
        }
      }
    }
  }
  JOINT pelvis_spine1
  {
    OFFSET 0 6.468898 -3.129235
    CHANNELS 3 Zrotation Xrotation Yrotation
    JOINT spine1
    {
      OFFSET 0 23.15396 4.99043
      CHANNELS 3 Zrotation Xrotation Yrotation
      JOINT spine2
      {
        OFFSET 0 20.79997 -5.064912
        CHANNELS 3 Zrotation Xrotation Yrotation
        JOINT neck
        {
          OFFSET 0 14.38658 9.616178
          CHANNELS 3 Zrotation Xrotation Yrotation
          End Site
          {
            OFFSET 0 20 0
          }
        }
      }
      JOINT right_manubrium
      {
        OFFSET -5.722621 16.35077 3.967754
        CHANNELS 3 Zrotation Xrotation Yrotation
        JOINT right_clavicle
        {
          OFFSET -13.16364 1.694482 -4.693211
          CHANNELS 3 Zrotation Xrotation Yrotation
          JOINT right_humerus
          {
            OFFSET -28.5034 -0.3100689 -2.792744
            CHANNELS 3 Zrotation Xrotation Yrotation
            JOINT right_radius
            {
              OFFSET -25.15693 0.02248979 -1.271978
              CHANNELS 3 Zrotation Xrotation Yrotation
              End Site
              {
                OFFSET -15 0 0
              }
            }
          }
        }
      }
      JOINT left_manubrium
      {
        OFFSET 5.722621 16.35077 3.967754
        CHANNELS 3 Zrotation Xrotation Yrotation
        JOINT left_clavicle
        {
          OFFSET 13.16364 1.694482 -4.693211
          CHANNELS 3 Zrotation Xrotation Yrotation
          JOINT left_humerus
          {
            OFFSET 29.39168 -1.063119 -2.237045
            CHANNELS 3 Zrotation Xrotation Yrotation
            JOINT left_radius
            {
              OFFSET 24.59957 -0.9528479 0.9047498
              CHANNELS 3 Zrotation Xrotation Yrotation
              End Site
              {
                OFFSET 15 -0 -0
              }
            }
          }
        }
      }
    }
  }
}
MOTION
Frames: 23
Frame Time: 0.0416666666667
147.531 106.5063 3103.885 1.421001 -7.433088 4.74189 0.4376252 -17.01475 1.650475 -0 38.28821 -0 -1.154954 -1.10819 -7.247902 -4.990499 8.029248 -8.466436 -0 13.53295 -0 -2.344639 -16.89289 15.47115 0.3069214 -3.162444 7.856626 -0.3571642 13.63603 -3.495417 0.234521 20.13662 3.933555 2.036493 -16.60838 3.904197 -0.449686 -29.30685 12.36536 84.03565 20.25824 -4.201005 -0 0 29.48326 -24.52995 13.96754 17.63663 2.588676 -20.48035 -6.964572 -95.72285 9.055902 38.16664 0 0 -4.009869 6.921945 13.03728 5.355955
148.1761 105.5437 3109.498 1.66065 -7.115392 5.435597 0.1449721 -20.70643 0.8997291 -0 28.15927 -0 -1.332772 -2.398364 -7.697831 -4.948849 11.72277 -8.37743 -0 12.84102 -0 -3.07347 -18.60144 14.79916 0.4669134 -3.250109 7.790055 -0.2834162 13.98875 -3.610819 0.3874944 19.98272 3.63751 1.872189 -16.65682 3.838882 -0.3197447 -29.48299 12.52366 84.14736 19.50297 -4.389452 -0 0 29.65597 -24.59682 14.79121 17.68595 2.554127 -20.72817 -7.106018 -95.71115 9.065443 37.93533 0 0 -4.158132 6.820272 13.3887 5.390842
148.7167 104.2294 3115.465 1.99381 -6.563708 5.979589 -0.0007727561 -23.37651 0.24831 -0 18.94462 -0 -1.391489 -2.525298 -7.990281 -5.090248 14.97057 -8.208243 -0 13.50837 -0 -3.809076 -19.92079 14.09827 0.6348364 -3.346091 7.75165 -0.197257 14.35094 -3.776107 0.5219359 19.78792 3.319489 1.636809 -16.74849 3.787062 -0.2631138 -29.72594 12.66354 84.35964 18.81746 -4.657029 -0 0 29.87356 -24.5546 15.5976 17.72452 2.470019 -20.95406 -7.220908 -95.62027 9.092831 37.81716 0 0 -4.595294 6.67067 13.6501 5.566076
149.158 102.9175 3121.859 2.142315 -5.768612 6.424298 0.3712108 -24.98018 -0.02351814 -0 12.38403 -0 -1.510909 -1.68877 -8.07409 -5.234979 17.55588 -7.992176 -0 16.09674 -0 -4.63706 -20.37974 13.32645 0.7849134 -3.429142 7.742969 -0.1120105 14.66644 -3.96063 0.619779 19.58276 3.027586 1.376438 -16.85801 3.749171 -0.2714579 -29.99254 12.76821 84.62384 18.29512 -4.947963 -0 0 30.10235 -24.40966 16.27326 17.73703 2.354749 -21.13107 -7.296803 -95.46587 9.118084 37.81052 0 0 -5.220881 6.500033 13.79613 5.839767
149.5218 101.9761 3128.678 1.811897 -4.884598 6.789567 1.48821 -25.28876 0.5125679 -0 9.84973 -0 -1.711968 -0.7387372 -8.057674 -5.082837 19.04778 -7.751896 -0 21.04511 -0 -5.695731 -19.35134 12.51171 0.9014611 -3.473063 7.764004 -0.0415474 14.88626 -4.136568 0.6642059 19.39198 2.800198 1.125633 -16.96166 3.722937 -0.3510061 -30.24521 12.82013 84.91523 18.01668 -5.217382 -0 0 30.31187 -24.16031 16.71179 17.71655 2.215128 -21.22828 -7.327274 -95.24524 9.115254 37.92366 0 0 -5.976178 6.331296 13.79545 6.192191
149.8367 101.6478 3135.856 1.009506 -4.30275 6.987393 3.167789 -24.05074 2.124625 -0 11.12188 -0 -1.775102 -0.5870437 -8.212003 -4.457534 19.09872 -7.453031 -0 28.5139 -0 -6.949828 -16.42469 11.91793 0.9806408 -3.455974 7.812025 0.003488098 14.98565 -4.287831 0.6438864 19.23333 2.661523 0.9070755 -17.04157 3.704471 -0.5132487 -30.45144 12.80829 85.23565 18.0306 -5.455034 -0 0 30.46659 -23.80467 16.84046 17.65707 2.050182 -21.22908 -7.317962 -94.94494 9.063857 38.15759 0 0 -6.842007 6.18867 13.62425 6.609848
150.1311 102.0594 3143.201 -0.003916901 -4.202159 6.794493 5.084643 -21.39137 4.409556 -0 14.63739 -0 -2.010228 -1.374207 -8.207075 -3.535587 17.2154 -7.196993 -0 38.40788 -0 -7.569841 -11.74632 12.05656 1.026041 -3.372228 7.879053 0.01645754 14.96968 -4.407606 0.5604011 19.1229 2.621742 0.7373943 -17.09069 3.693855 -0.7600017 -30.58107 12.73311 85.59391 18.33212 -5.67867 -0 0 30.52459 -23.37092 16.6426 17.55948 1.864422 -21.13853 -7.284236 -94.57027 8.967356 38.48619 0 0 -7.783114 6.098353 13.29063 7.059203
150.4205 103.1541 3150.303 -0.8100949 -4.394069 6.137672 6.710281 -17.65538 5.976297 -0 17.83744 -0 -3.295501 -2.983361 -7.311374 -2.821053 12.87559 -7.262076 -0 49.02932 -0 -6.990665 -7.103872 12.91448 1.051718 -3.231463 7.958381 -0.001526004 14.87239 -4.509028 0.4265442 19.05822 2.663524 0.6032469 -17.12323 3.696102 -1.097835 -30.63323 12.60187 86.02498 18.87395 -5.935449 -0 0 30.46895 -22.88191 16.16831 17.43121 1.654562 -20.97243 -7.238536 -94.12167 8.850438 38.88669 0 0 -8.820813 6.064113 12.81785 7.535322
150.7104 104.5911 3156.852 -0.8212647 -5.075734 5.283979 7.141489 -12.41818 6.044452 -0 18.51937 -0 -4.678751 -5.30437 -6.171114 -2.62047 6.651931 -7.421562 -0 57.38497 -0 -6.66214 -5.083114 13.83279 1.085612 -3.049021 8.041244 -0.05242798 14.73107 -4.618203 0.2774528 19.00874 2.72115 0.4215025 -17.20264 3.739519 -1.576095 -30.65489 12.40366 86.61255 19.59087 -6.25987 -0 0 30.3454 -22.34515 15.53731 17.32291 1.400726 -20.69651 -7.147083 -93.56498 8.78306 39.35544 0 0 -10.09574 6.0229 12.24454 8.135512
151.0564 106.0618 3162.856 -0.1387753 -5.669256 4.468793 6.415884 -6.400102 5.536671 -0 16.55398 -0 -4.751871 -6.99732 -5.038352 -2.629567 -1.07784 -7.127268 -0 62.05247 -0 -7.07037 -5.160631 14.19107 1.138839 -2.850331 8.10217 -0.1689426 14.51087 -4.702859 0.1853459 18.96244 2.715924 0.08792084 -17.44318 3.896322 -2.262714 -30.69085 12.08684 87.363 20.42149 -6.513558 -0 0 30.26864 -21.89181 14.88225 17.398 1.125805 -20.16278 -6.885141 -92.9313 8.91102 39.84857 0 0 -11.5729 5.846244 11.67767 8.966649
151.4611 107.2037 3168.493 0.7283387 -5.901768 3.746025 5.20703 -1.158859 4.757126 -0 13.73716 -0 -4.285059 -8.100343 -3.664103 -2.386857 -8.976233 -6.523197 -0 61.53918 -0 -7.080801 -5.667367 14.51424 1.171753 -2.686477 8.122803 -0.3781564 14.12682 -4.663531 0.2023642 18.95587 2.650576 -0.3571863 -17.88876 4.198847 -3.09061 -30.73038 11.63625 88.03802 21.27124 -6.414036 -0 0 30.35312 -21.78426 14.26423 17.79907 0.9388636 -19.29233 -6.36628 -92.43888 9.317447 40.264 0 0 -12.74354 5.469364 11.25658 9.899728
151.8685 107.6401 3173.956 1.258024 -6.534525 3.073208 4.400405 3.711492 4.080618 -0 11.9341 -0 -3.968429 -10.02613 -2.759544 -1.451953 -15.16696 -5.772348 -0 55.18882 -0 -6.55216 -6.098567 16.019 1.157373 -2.587218 8.130541 -0.5998467 13.68471 -4.522705 0.2572048 19.00423 2.62069 -0.6954582 -18.33629 4.504922 -3.786652 -30.72903 11.20945 88.41469 21.97821 -6.063262 -0 0 30.50882 -21.97293 13.69689 18.29712 0.880703 -18.42239 -5.822065 -92.23527 9.778242 40.55275 0 0 -13.25768 5.085492 10.97529 10.58833
152.2906 107.3668 3179.354 1.214124 -6.948719 2.388982 4.327784 8.032792 3.781035 -0 10.6777 -0 -3.832088 -12.46089 -2.320283 0.01905877 -19.69016 -4.775482 -0 45.57042 -0 -5.884118 -6.350486 17.75839 1.129459 -2.518993 8.148305 -0.7334719 13.4045 -4.42307 0.2464328 19.07651 2.681729 -0.8067559 -18.5498 4.663436 -4.176191 -30.65484 10.97067 88.59813 22.48891 -5.891664 -0 0 30.50919 -22.10982 13.20815 18.54262 0.8539559 -17.94413 -5.552063 -92.15031 10.00702 40.73348 0 0 -13.44006 4.955834 10.73072 10.86738
152.7731 106.5658 3184.795 0.8316353 -6.660652 1.687018 4.526818 11.34998 3.679467 -0 9.83422 -0 -3.548101 -14.6293 -1.9061 1.46077 -23.12436 -3.710543 -0 35.7927 -0 -5.346005 -6.44413 18.87124 1.096024 -2.465762 8.174498 -0.7830559 13.28588 -4.387633 0.1674203 19.16095 2.819139 -0.7425728 -18.54551 4.695213 -4.317002 -30.52486 10.89603 88.68251 22.86868 -5.945261 -0 0 30.34252 -22.11993 12.78481 18.53998 0.8238601 -17.82012 -5.531934 -92.09409 10.0178 40.84633 0 0 -13.49483 5.065757 10.49862 10.83381
153.3484 105.431 3190.4 0.3743836 -5.846979 0.9931818 4.572469 13.8808 3.598188 -0 9.777558 -0 -3.017563 -16.27202 -1.377129 2.472758 -25.69806 -2.906309 -0 27.27045 -0 -5.002341 -6.484283 19.47851 1.008272 -2.463264 8.206779 -0.7932079 13.1775 -4.321606 0.06807144 19.28387 3.02619 -0.5492798 -18.43539 4.688066 -4.270688 -30.37515 10.89909 88.5256 23.15297 -5.912489 -0 0 30.16359 -22.19256 12.38287 18.48919 0.8640339 -17.83478 -5.583661 -92.21971 9.970996 40.91585 0 0 -13.15482 5.259516 10.34069 10.56729
154.04 104.1686 3196.3 0.04573706 -4.820955 0.3243198 4.207476 15.95963 3.430845 -0 10.83886 -0 -2.365555 -17.05782 -0.7403698 2.759877 -27.36972 -2.692942 -0 20.72867 -0 -4.824482 -6.581725 19.79519 0.8522285 -2.527042 8.237351 -0.7866749 13.01612 -4.182192 -0.01335284 19.44584 3.274345 -0.2675092 -18.28504 4.684065 -4.064219 -30.23292 10.93818 88.06312 23.32251 -5.633974 -0 0 30.0675 -22.41951 12.0331 18.49076 1.010905 -17.88131 -5.612409 -92.58894 9.949411 40.92522 0 0 -12.30674 5.438538 10.31542 10.12624
154.8674 102.9837 3202.612 0.03479791 -3.955309 -0.302828 3.293815 17.78193 3.210277 -0 13.38548 -0 -1.7572 -16.32436 -0.07532411 2.123782 -27.9738 -3.284224 -0 16.81714 -0 -4.713518 -6.800146 19.93884 0.6678269 -2.629532 8.254747 -0.7671421 12.8471 -4.004994 -0.0613207 19.61528 3.512261 0.0488146 -18.11512 4.677849 -3.739856 -30.10881 11.00789 87.41815 23.3509 -5.202046 -0 0 30.04185 -22.73483 11.80555 18.51978 1.226329 -17.96208 -5.625637 -93.0947 9.943613 40.85059 0 0 -11.157 5.58388 10.42719 9.596155
155.8454 102.0722 3209.384 0.4532514 -3.628228 -0.8264592 1.887779 19.25628 3.179498 -0 18.04844 -0 -1.26865 -13.29308 0.4070272 0.6285481 -27.34127 -4.555205 -0 15.84326 -0 -4.43164 -7.086124 19.95509 0.4997732 -2.735649 8.253672 -0.7351324 12.7278 -3.838551 -0.07922549 19.76395 3.706378 0.3590631 -17.93159 4.653782 -3.352475 -30.00064 11.10805 86.7528 23.24581 -4.771408 -0 0 30.03594 -23.04632 11.72653 18.52545 1.455302 -18.10087 -5.659825 -93.60603 9.920279 40.69524 0 0 -9.964776 5.713886 10.63633 9.049628
156.9786 101.6592 3216.538 1.219201 -3.948173 -1.085444 0.2961734 19.76896 3.632714 -0 25.67885 -0 -0.713636 -7.817505 0.3625275 -1.339266 -25.37572 -5.954836 -0 17.31989 -0 -3.690737 -7.32734 19.745 0.3722734 -2.823164 8.238059 -0.6914802 12.6874 -3.715451 -0.08386144 19.87987 3.854148 0.6487071 -17.73497 4.600257 -2.949422 -29.89936 11.23554 86.17822 23.05219 -4.459932 -0 0 30.00203 -23.29221 11.76504 18.46948 1.658367 -18.31344 -5.745235 -94.03824 9.851798 40.48681 0 0 -8.907468 5.859386 10.88149 8.520607
158.2353 101.9811 3223.842 2.041229 -4.675698 -0.8727466 -0.9561046 18.28944 4.43386 -0 36.42002 -0 0.1806491 -1.169671 -0.5421654 -3.310905 -21.97923 -6.95697 -0 19.85941 -0 -2.501058 -7.633313 19.17623 0.2807014 -2.888525 8.215136 -0.6394541 12.71479 -3.636516 -0.09134516 19.97174 3.977689 0.931069 -17.52275 4.516428 -2.547569 -29.79023 11.38401 85.70671 22.82371 -4.290336 -0 0 29.91693 -23.46931 11.86058 18.34262 1.830824 -18.59605 -5.887114 -94.38488 9.732775 40.24752 0 0 -8.00103 6.042703 11.12059 7.995457
159.5218 103.0786 3230.92 2.533926 -5.530587 -0.1098214 -1.329272 14.04632 4.884705 -0 48.14074 -0 1.129745 4.197929 -2.218127 -4.892592 -17.14251 -7.541971 -0 21.62176 -0 -1.310231 -8.364172 18.40156 0.2052825 -2.938599 8.187291 -0.5840192 12.78042 -3.579996 -0.1068262 20.0601 4.104149 1.235609 -17.28915 4.407593 -2.130521 -29.65373 11.54933 85.2804 22.58855 -4.214978 -0 0 29.77547 -23.61854 11.9676 18.15403 1.995851 -18.93743 -6.074587 -94.69358 9.573886 39.9698 0 0 -7.134067 6.274582 11.35349 7.426654
160.7265 104.6013 3237.435 2.476348 -6.380559 1.047705 -0.8026162 7.276044 4.55586 -0 56.47267 -0 1.332494 6.364144 -3.986009 -5.747904 -11.2374 -7.941819 -0 21.35773 -0 -0.6157739 -9.723968 17.74644 0.1412394 -2.979502 8.148803 -0.5303161 12.87144 -3.529248 -0.1167264 20.15013 4.227674 1.562785 -17.04414 4.281707 -1.68877 -29.48921 11.72756 84.86336 22.32266 -4.183003 -0 0 29.59756 -23.7808 12.10559 17.92956 2.170861 -19.31918 -6.289906 -94.99701 9.39508 39.63002 0 0 -6.230108 6.537602 11.61176 6.803285
161.8015 105.986 3243.329 2.046139 -7.065549 2.322643 -0.00181914 -0.60612 3.771402 -0 58.0906 -0 0.6549996 5.462362 -5.298185 -5.83493 -5.103485 -8.230761 -0 19.3341 -0 -0.5969702 -11.56683 17.20378 0.1085387 -3.016429 8.089936 -0.4833612 12.9966 -3.481981 -0.0899663 20.22099 4.296217 1.854525 -16.82788 4.155573 -1.254887 -29.33443 11.90814 84.48234 21.95765 -4.15565 -0 0 29.44356 -23.9786 12.35918 17.73201 2.345114 -19.69516 -6.502957 -95.28329 9.232941 39.22575 0 0 -5.340255 6.770244 11.93367 6.202205
